# Blender v2.79 (sub 0) OBJ File: ''
# www.blender.org
mtllib real_chair.mtl
o Chair_mesh
v -0.217155 0.415702 0.235223
v -0.217155 0.359612 0.235223
v 0.204079 0.359612 0.235223
v 0.204079 0.415702 0.235223
v 0.176330 0.444510 -0.220996
v -0.180972 0.444510 -0.220996
v -0.240000 0.444510 0.262513
v 0.240000 0.444510 0.262513
v -0.165668 0.359612 -0.203758
v -0.165672 0.415702 -0.203688
v 0.160992 0.415702 -0.203758
v 0.160992 0.359612 -0.203758
v -0.233076 0.416669 0.257487
v 0.233076 0.416669 0.257487
v 0.176330 0.416669 -0.226022
v -0.180972 0.416669 -0.226022
v 0.182974 0.581894 -0.213450
v 0.181820 0.586388 -0.232788
v -0.169412 0.586388 -0.232788
v -0.170487 0.581894 -0.213450
v -0.170487 0.538417 -0.213450
v -0.169412 0.538417 -0.232788
v 0.181820 0.538417 -0.232788
v 0.182974 0.538417 -0.213450
v 0.182974 0.681386 -0.213450
v 0.181820 0.685880 -0.232788
v -0.169412 0.685880 -0.232788
v -0.170487 0.681386 -0.213450
v -0.170487 0.637909 -0.213450
v -0.169412 0.637909 -0.232788
v 0.181820 0.637909 -0.232788
v 0.182974 0.637909 -0.213450
v 0.163785 0.137020 0.209334
v 0.181902 0.129680 0.209334
v 0.156527 0.129680 -0.233876
v 0.140937 0.137020 -0.233876
v 0.140937 0.107038 -0.233876
v 0.156527 0.107038 -0.233876
v 0.181902 0.107038 0.209334
v 0.163785 0.107038 0.209334
v -0.218664 -0.000000 0.191667
v -0.154375 -0.000000 0.184553
v -0.157304 -0.000000 0.251206
v -0.222812 -0.000000 0.244388
v -0.218664 0.431164 0.191667
v -0.154375 0.431164 0.184553
v -0.157304 0.431164 0.251206
v -0.222812 0.431164 0.244388
v 0.163080 -0.000000 0.251206
v 0.160044 -0.000000 0.184553
v 0.218156 -0.000000 0.191667
v 0.222294 -0.000000 0.244388
v 0.163080 0.431164 0.251206
v 0.160044 0.431164 0.184553
v 0.218156 0.431164 0.191667
v 0.222294 0.431164 0.244388
v 0.182974 0.780878 -0.213450
v 0.181820 0.785372 -0.232788
v -0.169412 0.785372 -0.232788
v -0.170487 0.780878 -0.213450
v -0.170487 0.737401 -0.213450
v -0.169412 0.737401 -0.232788
v 0.181820 0.737401 -0.232788
v 0.182974 0.737401 -0.213450
v 0.182974 0.894146 -0.213450
v 0.181820 0.898640 -0.232788
v -0.169412 0.898640 -0.232788
v -0.170487 0.894146 -0.213450
v -0.170487 0.850669 -0.213450
v -0.169412 0.850669 -0.232788
v 0.181820 0.850669 -0.232788
v 0.182974 0.850669 -0.213450
v -0.188018 0.000000 -0.249918
v -0.132740 0.000000 -0.257487
v -0.135668 0.000000 -0.190834
v -0.192166 0.000000 -0.200521
v -0.188018 0.960000 -0.249918
v -0.132740 0.960000 -0.257487
v -0.135668 0.960000 -0.190834
v -0.192166 0.960000 -0.200521
v 0.191720 0.000000 -0.200521
v 0.140650 0.000000 -0.190834
v 0.137614 0.000000 -0.257487
v 0.187581 0.000000 -0.249918
v 0.191720 0.960000 -0.200521
v 0.140650 0.960000 -0.190834
v 0.137614 0.960000 -0.257487
v 0.187581 0.960000 -0.249918
v -0.197040 0.129680 0.206248
v -0.178938 0.137020 0.206248
v -0.154111 0.137020 -0.233876
v -0.169701 0.129680 -0.233876
v -0.169701 0.107038 -0.233876
v -0.154111 0.107038 -0.233876
v -0.178938 0.107038 0.206248
v -0.197040 0.107038 0.206248
vt 0.844339 0.654957
vt 0.844562 0.682297
vt 0.665369 0.683759
vt 0.665146 0.656420
vt 0.675361 0.461566
vt 0.827356 0.460326
vt 0.850936 0.633342
vt 0.652635 0.634960
vt 0.820442 0.411454
vt 0.820672 0.438793
vt 0.681709 0.439953
vt 0.681481 0.412613
vt 0.629394 0.622230
vt 0.602372 0.618070
vt 0.626459 0.461597
vt 0.653481 0.465757
vt 0.896001 0.618654
vt 0.868871 0.622045
vt 0.849182 0.464526
vt 0.876308 0.461110
vt 0.851046 0.646912
vt 0.652746 0.648531
vt 0.639178 0.633197
vt 0.661904 0.459803
vt 0.827246 0.446754
vt 0.675250 0.447995
vt 0.864383 0.631509
vt 0.840804 0.458493
vt 0.661840 0.255520
vt 0.841033 0.254024
vt 0.207855 0.249311
vt 0.208456 0.242393
vt 0.357856 0.244769
vt 0.358204 0.251703
vt 0.358796 0.214470
vt 0.358228 0.221389
vt 0.208828 0.219013
vt 0.208447 0.212079
vt 0.208819 0.188698
vt 0.359168 0.191089
vt 0.205105 0.325236
vt 0.205772 0.318324
vt 0.355143 0.322118
vt 0.355425 0.329055
vt 0.356370 0.291829
vt 0.355737 0.298743
vt 0.206366 0.294948
vt 0.206051 0.288010
vt 0.206645 0.264635
vt 0.356964 0.268453
vt 0.207358 0.048352
vt 0.206877 0.040660
vt 0.366008 0.041536
vt 0.366421 0.048156
vt 0.366440 0.062770
vt 0.366043 0.069391
vt 0.206915 0.070660
vt 0.207376 0.062967
vt 0.366159 0.084005
vt 0.207031 0.085275
vt 0.285656 0.760408
vt 0.312999 0.759837
vt 0.312253 0.783734
vt 0.284391 0.784316
vt 0.281267 0.550284
vt 0.308610 0.549713
vt 0.332514 0.549214
vt 0.336903 0.759337
vt 0.316642 0.993858
vt 0.288780 0.994440
vt 0.257331 0.550784
vt 0.261720 0.760908
vt 0.243450 0.756701
vt 0.245148 0.780552
vt 0.220429 0.780972
vt 0.218263 0.757129
vt 0.272627 0.990284
vt 0.248719 0.990691
vt 0.269056 0.780145
vt 0.224001 0.991111
vt 0.200063 0.991518
vt 0.196492 0.781379
vt 0.214692 0.546990
vt 0.239879 0.546562
vt 0.203633 0.496238
vt 0.204112 0.489310
vt 0.353532 0.489073
vt 0.354000 0.495999
vt 0.353941 0.458762
vt 0.353494 0.465689
vt 0.204076 0.465927
vt 0.203574 0.459001
vt 0.203536 0.435617
vt 0.353904 0.435378
vt 0.205386 0.409144
vt 0.205869 0.402216
vt 0.355288 0.402038
vt 0.355754 0.408965
vt 0.355710 0.371727
vt 0.355260 0.378655
vt 0.205842 0.378833
vt 0.205342 0.371906
vt 0.205315 0.348523
vt 0.355682 0.348344
vt 0.064359 0.500776
vt 0.066237 0.524216
vt 0.042337 0.524881
vt 0.040418 0.500922
vt 0.102745 0.991332
vt 0.079238 0.991985
vt 0.089744 0.523563
vt 0.055338 0.992649
vt 0.031312 0.993317
vt 0.018311 0.525548
vt 0.037543 0.032982
vt 0.061485 0.032835
vt 0.063074 0.009373
vt 0.039168 0.009002
vt 0.139680 0.969546
vt 0.138312 0.991229
vt 0.114402 0.991015
vt 0.115740 0.969800
vt 0.140503 0.011583
vt 0.154612 0.479319
vt 0.132896 0.479974
vt 0.118787 0.012238
vt 0.108995 0.480695
vt 0.094886 0.012959
vt 0.087748 0.481336
vt 0.073639 0.013600
vt 0.110783 0.501877
vt 0.134723 0.501623
vt 0.205369 0.111485
vt 0.205934 0.103805
vt 0.363945 0.104829
vt 0.363459 0.111443
vt 0.363463 0.126058
vt 0.363952 0.132672
vt 0.205942 0.133779
vt 0.205373 0.126100
vt 0.364055 0.147286
vt 0.206044 0.148394
vn 0.0000 -0.0000 1.0000
vn 0.0000 1.0000 0.0000
vn -0.0001 0.0006 -1.0000
vn 0.9952 -0.0000 -0.0977
vn -0.9932 0.0000 -0.1165
vn 0.0000 -0.9991 0.0434
vn 0.0436 -0.9990 -0.0047
vn -0.0000 -0.9991 -0.0433
vn -0.0618 -0.9981 -0.0069
vn 0.0000 -0.1776 0.9841
vn 0.9873 -0.1006 -0.1229
vn 0.0000 0.1776 -0.9841
vn -0.9882 -0.1024 -0.1136
vn 0.0000 -1.0000 -0.0000
vn 0.0000 0.9740 0.2264
vn 0.0000 0.0000 -1.0000
vn 0.3992 0.9166 -0.0217
vn 0.9984 0.0000 -0.0572
vn -0.9987 0.0000 0.0515
vn -0.1100 0.0000 -0.9939
vn 0.9990 -0.0000 0.0439
vn -0.1035 -0.0000 0.9946
vn -0.9969 0.0000 -0.0784
vn -0.9990 0.0000 0.0455
vn 0.1215 0.0000 -0.9926
vn 0.9969 0.0000 -0.0783
vn 0.1144 -0.0000 0.9934
vn -0.1357 0.0000 -0.9908
vn -0.1690 -0.0000 0.9856
vn -0.9965 0.0000 -0.0837
vn 0.1864 -0.0000 0.9825
vn 0.1498 0.0000 -0.9887
vn 0.9965 0.0000 -0.0835
vn -0.3993 0.9165 -0.0237
vn 0.9984 0.0000 0.0563
vn -0.9981 0.0000 -0.0620
usemtl blinn1SG
s 1
f 1/1/1 2/2/1 3/3/1 4/4/1
f 5/5/2 6/6/2 7/7/2 8/8/2
f 9/9/3 10/10/3 11/11/3 12/12/3
f 4/13/4 3/14/4 12/15/4 11/16/4
f 2/17/5 1/18/5 10/19/5 9/20/5
f 13/21/6 1/1/6 4/4/6 14/22/6
f 14/23/7 4/13/7 11/16/7 15/24/7
f 10/10/8 16/25/8 15/26/8 11/11/8
f 1/18/9 13/27/9 16/28/9 10/19/9
f 7/7/10 13/21/10 14/22/10 8/8/10
f 8/8/11 14/23/11 15/24/11 5/5/11
f 16/25/12 6/6/12 5/5/12 15/26/12
f 13/27/13 7/7/13 6/6/13 16/28/13
f 3/29/14 2/30/14 9/9/14 12/12/14
f 17/31/15 18/32/15 19/33/15 20/34/15
f 21/35/14 22/36/14 23/37/14 24/38/14
f 23/37/16 22/36/16 19/33/16 18/32/16
f 21/35/1 24/38/1 17/39/1 20/40/1
f 25/41/15 26/42/15 27/43/15 28/44/15
f 29/45/14 30/46/14 31/47/14 32/48/14
f 31/47/16 30/46/16 27/43/16 26/42/16
f 29/45/1 32/48/1 25/49/1 28/50/1
f 33/51/17 34/52/17 35/53/17 36/54/17
f 37/55/14 38/56/14 39/57/14 40/58/14
f 39/57/18 38/56/18 35/59/18 34/60/18
f 37/55/19 40/58/19 33/51/19 36/54/19
f 41/61/14 42/62/14 43/63/14 44/64/14
f 45/65/20 46/66/20 42/62/20 41/61/20
f 42/62/21 46/66/21 47/67/21 43/68/21
f 47/69/22 48/70/22 44/64/22 43/63/22
f 48/71/23 45/65/23 41/61/23 44/72/23
f 49/73/14 50/74/14 51/75/14 52/76/14
f 53/77/24 54/78/24 50/74/24 49/79/24
f 54/78/25 55/80/25 51/75/25 50/74/25
f 51/75/26 55/80/26 56/81/26 52/82/26
f 56/83/27 53/84/27 49/73/27 52/76/27
f 57/85/15 58/86/15 59/87/15 60/88/15
f 61/89/14 62/90/14 63/91/14 64/92/14
f 63/91/16 62/90/16 59/87/16 58/86/16
f 61/89/1 64/92/1 57/93/1 60/94/1
f 65/95/15 66/96/15 67/97/15 68/98/15
f 69/99/14 70/100/14 71/101/14 72/102/14
f 71/101/16 70/100/16 67/97/16 66/96/16
f 69/99/1 72/102/1 65/103/1 68/104/1
f 73/105/14 74/106/14 75/107/14 76/108/14
f 77/109/28 78/110/28 74/106/28 73/111/28
f 78/110/21 79/112/21 75/107/21 74/106/21
f 79/112/29 80/113/29 76/114/29 75/107/29
f 76/108/30 80/115/30 77/116/30 73/105/30
f 78/117/2 77/116/2 80/115/2 79/118/2
f 81/119/14 82/120/14 83/121/14 84/122/14
f 81/123/31 85/124/31 86/125/31 82/126/31
f 86/125/24 87/127/24 83/128/24 82/126/24
f 87/127/32 88/129/32 84/130/32 83/128/32
f 88/131/33 85/132/33 81/119/33 84/122/33
f 85/132/2 88/131/2 87/127/2 86/125/2
f 89/133/34 90/134/34 91/135/34 92/136/34
f 93/137/14 94/138/14 95/139/14 96/140/14
f 95/139/35 94/138/35 91/141/35 90/142/35
f 93/137/36 96/140/36 89/133/36 92/136/36
